<svg id="visual" viewBox="0 0 900 600" width="900" height="600" xmlns="http://www.w3.org/2000/svg" xmlns:xlink="http://www.w3.org/1999/xlink" version="1.1"><rect x="0" y="0" width="900" height="600" fill="#202731"></rect><path d="M0 128L30 127.5C60 127 120 126 180 119.7C240 113.3 300 101.7 360 95C420 88.3 480 86.7 540 96.2C600 105.7 660 126.3 720 130.8C780 135.3 840 123.7 870 117.8L900 112L900 0L870 0C840 0 780 0 720 0C660 0 600 0 540 0C480 0 420 0 360 0C300 0 240 0 180 0C120 0 60 0 30 0L0 0Z" fill="#5195CF" stroke-linecap="round" stroke-linejoin="miter"></path></svg>