<svg id="visual" viewBox="0 0 960 540" width="960" height="540" xmlns="http://www.w3.org/2000/svg" xmlns:xlink="http://www.w3.org/1999/xlink" version="1.1"><rect x="0" y="0" width="960" height="540" fill="#202731"></rect><path d="M0 234L40 220.3C80 206.7 160 179.3 240 159.3C320 139.3 400 126.7 480 152.8C560 179 640 244 720 259.5C800 275 880 241 920 224L960 207L960 0L920 0C880 0 800 0 720 0C640 0 560 0 480 0C400 0 320 0 240 0C160 0 80 0 40 0L0 0Z" fill="#5195CF" stroke-linecap="round" stroke-linejoin="miter"></path></svg>