<svg id="visual" viewBox="0 0 900 600" width="900" height="600" xmlns="http://www.w3.org/2000/svg" xmlns:xlink="http://www.w3.org/1999/xlink" version="1.1"><path d="M0 387L21.5 385.7C43 384.3 86 381.7 128.8 375.7C171.7 369.7 214.3 360.3 257.2 363C300 365.7 343 380.3 385.8 392C428.7 403.7 471.3 412.3 514.2 413.5C557 414.7 600 408.3 642.8 404.8C685.7 401.3 728.3 400.7 771.2 398.3C814 396 857 392 878.5 390L900 388L900 601L878.5 601C857 601 814 601 771.2 601C728.3 601 685.7 601 642.8 601C600 601 557 601 514.2 601C471.3 601 428.7 601 385.8 601C343 601 300 601 257.2 601C214.3 601 171.7 601 128.8 601C86 601 43 601 21.5 601L0 601Z" fill="#fa7268"></path><path d="M0 401L21.5 401C43 401 86 401 128.8 413C171.7 425 214.3 449 257.2 460.8C300 472.7 343 472.3 385.8 463.7C428.7 455 471.3 438 514.2 426C557 414 600 407 642.8 410.2C685.7 413.3 728.3 426.7 771.2 438.5C814 450.3 857 460.7 878.5 465.8L900 471L900 601L878.5 601C857 601 814 601 771.2 601C728.3 601 685.7 601 642.8 601C600 601 557 601 514.2 601C471.3 601 428.7 601 385.8 601C343 601 300 601 257.2 601C214.3 601 171.7 601 128.8 601C86 601 43 601 21.5 601L0 601Z" fill="#ef5f67"></path><path d="M0 451L21.5 455.8C43 460.7 86 470.3 128.8 477.2C171.7 484 214.3 488 257.2 484.7C300 481.3 343 470.7 385.8 467.3C428.7 464 471.3 468 514.2 467.2C557 466.3 600 460.7 642.8 464.2C685.7 467.7 728.3 480.3 771.2 484.8C814 489.3 857 485.7 878.5 483.8L900 482L900 601L878.5 601C857 601 814 601 771.2 601C728.3 601 685.7 601 642.8 601C600 601 557 601 514.2 601C471.3 601 428.7 601 385.8 601C343 601 300 601 257.2 601C214.3 601 171.7 601 128.8 601C86 601 43 601 21.5 601L0 601Z" fill="#e34c67"></path><path d="M0 522L21.5 521.3C43 520.7 86 519.3 128.8 516.7C171.7 514 214.3 510 257.2 513.2C300 516.3 343 526.7 385.8 522.7C428.7 518.7 471.3 500.3 514.2 497C557 493.7 600 505.3 642.8 509.7C685.7 514 728.3 511 771.2 513.8C814 516.7 857 525.3 878.5 529.7L900 534L900 601L878.5 601C857 601 814 601 771.2 601C728.3 601 685.7 601 642.8 601C600 601 557 601 514.2 601C471.3 601 428.7 601 385.8 601C343 601 300 601 257.2 601C214.3 601 171.7 601 128.8 601C86 601 43 601 21.5 601L0 601Z" fill="#d53867"></path><path d="M0 544L21.5 541.8C43 539.7 86 535.3 128.8 532.2C171.7 529 214.3 527 257.2 531.5C300 536 343 547 385.8 548.5C428.7 550 471.3 542 514.2 544.5C557 547 600 560 642.8 559C685.7 558 728.3 543 771.2 540.3C814 537.7 857 547.3 878.5 552.2L900 557L900 601L878.5 601C857 601 814 601 771.2 601C728.3 601 685.7 601 642.8 601C600 601 557 601 514.2 601C471.3 601 428.7 601 385.8 601C343 601 300 601 257.2 601C214.3 601 171.7 601 128.8 601C86 601 43 601 21.5 601L0 601Z" fill="#c62368"></path></svg>