<svg id="visual" viewBox="0 0 900 600" width="900" height="600" xmlns="http://www.w3.org/2000/svg" xmlns:xlink="http://www.w3.org/1999/xlink" version="1.1"><path d="M0 276L18.8 274.2C37.7 272.3 75.3 268.7 112.8 280.2C150.3 291.7 187.7 318.3 225.2 325.7C262.7 333 300.3 321 337.8 305.7C375.3 290.3 412.7 271.7 450.2 264.5C487.7 257.3 525.3 261.7 562.8 279.5C600.3 297.3 637.7 328.7 675.2 345.3C712.7 362 750.3 364 787.8 349.3C825.3 334.7 862.7 303.3 881.3 287.7L900 272L900 601L881.3 601C862.7 601 825.3 601 787.8 601C750.3 601 712.7 601 675.2 601C637.7 601 600.3 601 562.8 601C525.3 601 487.7 601 450.2 601C412.7 601 375.3 601 337.8 601C300.3 601 262.7 601 225.2 601C187.7 601 150.3 601 112.8 601C75.3 601 37.7 601 18.8 601L0 601Z" fill="#1f1f2e"></path><path d="M0 411L18.8 399.2C37.7 387.3 75.3 363.7 112.8 347.3C150.3 331 187.7 322 225.2 325.2C262.7 328.3 300.3 343.7 337.8 357.2C375.3 370.7 412.7 382.3 450.2 380.5C487.7 378.7 525.3 363.3 562.8 367.2C600.3 371 637.7 394 675.2 402C712.7 410 750.3 403 787.8 397.7C825.3 392.3 862.7 388.7 881.3 386.8L900 385L900 601L881.3 601C862.7 601 825.3 601 787.8 601C750.3 601 712.7 601 675.2 601C637.7 601 600.3 601 562.8 601C525.3 601 487.7 601 450.2 601C412.7 601 375.3 601 337.8 601C300.3 601 262.7 601 225.2 601C187.7 601 150.3 601 112.8 601C75.3 601 37.7 601 18.8 601L0 601Z" fill="#422e58"></path><path d="M0 377L18.8 386.7C37.7 396.3 75.3 415.7 112.8 423C150.3 430.3 187.7 425.7 225.2 425.8C262.7 426 300.3 431 337.8 433.2C375.3 435.3 412.7 434.7 450.2 426.8C487.7 419 525.3 404 562.8 394C600.3 384 637.7 379 675.2 386C712.7 393 750.3 412 787.8 416.3C825.3 420.7 862.7 410.3 881.3 405.2L900 400L900 601L881.3 601C862.7 601 825.3 601 787.8 601C750.3 601 712.7 601 675.2 601C637.7 601 600.3 601 562.8 601C525.3 601 487.7 601 450.2 601C412.7 601 375.3 601 337.8 601C300.3 601 262.7 601 225.2 601C187.7 601 150.3 601 112.8 601C75.3 601 37.7 601 18.8 601L0 601Z" fill="#793579"></path><path d="M0 491L18.8 489.2C37.7 487.3 75.3 483.7 112.8 487C150.3 490.3 187.7 500.7 225.2 505.5C262.7 510.3 300.3 509.7 337.8 505.2C375.3 500.7 412.7 492.3 450.2 484.8C487.7 477.3 525.3 470.7 562.8 462C600.3 453.3 637.7 442.7 675.2 450.3C712.7 458 750.3 484 787.8 494.7C825.3 505.3 862.7 500.7 881.3 498.3L900 496L900 601L881.3 601C862.7 601 825.3 601 787.8 601C750.3 601 712.7 601 675.2 601C637.7 601 600.3 601 562.8 601C525.3 601 487.7 601 450.2 601C412.7 601 375.3 601 337.8 601C300.3 601 262.7 601 225.2 601C187.7 601 150.3 601 112.8 601C75.3 601 37.7 601 18.8 601L0 601Z" fill="#bb2e89"></path><path d="M0 529L18.8 532.5C37.7 536 75.3 543 112.8 542.5C150.3 542 187.7 534 225.2 530C262.7 526 300.3 526 337.8 531.7C375.3 537.3 412.7 548.7 450.2 545.7C487.7 542.7 525.3 525.3 562.8 515.8C600.3 506.3 637.7 504.7 675.2 513.5C712.7 522.3 750.3 541.7 787.8 544.2C825.3 546.7 862.7 532.3 881.3 525.2L900 518L900 601L881.3 601C862.7 601 825.3 601 787.8 601C750.3 601 712.7 601 675.2 601C637.7 601 600.3 601 562.8 601C525.3 601 487.7 601 450.2 601C412.7 601 375.3 601 337.8 601C300.3 601 262.7 601 225.2 601C187.7 601 150.3 601 112.8 601C75.3 601 37.7 601 18.8 601L0 601Z" fill="#ff1285"></path></svg>